<?xml version="1.0" standalone="no"?>
<!DOCTYPE svg PUBLIC "-//W3C//DTD SVG 20010904//EN"
 "http://www.w3.org/TR/2001/REC-SVG-20010904/DTD/svg10.dtd">
<svg version="1.0" xmlns="http://www.w3.org/2000/svg"
 width="600.000000pt" height="600.000000pt" viewBox="0 0 600.000000 600.000000"
 preserveAspectRatio="xMidYMid meet">

<g transform="translate(0.000000,600.000000) scale(0.100000,-0.100000)"
fill="#000000" stroke="none">
<path d="M2740 5989 c-694 -63 -1332 -352 -1824 -829 -499 -482 -796 -1074
-892 -1780 -22 -154 -24 -555 -5 -705 105 -833 516 -1551 1173 -2048 386 -292
848 -488 1338 -567 192 -31 587 -39 790 -15 544 62 1060 270 1487 598 606 466
1016 1161 1135 1920 29 190 36 579 14 777 -120 1053 -768 1947 -1731 2391
-265 123 -546 203 -855 244 -142 19 -489 27 -630 14z m339 -451 c33 -57 64
-110 69 -118 6 -10 8 22 5 90 -6 123 -1 133 69 128 42 -3 43 -4 46 -43 2 -22
1 -122 -3 -222 l-7 -183 -53 0 c-62 0 -61 -1 -141 140 l-59 105 -3 -109 c-1
-61 -8 -116 -14 -123 -13 -16 -94 -17 -103 -2 -4 6 -4 107 0 225 l7 214 64 0
63 0 60 -102z m-268 -123 c10 -115 14 -213 10 -217 -11 -12 -106 -19 -121 -9
-11 8 -18 51 -27 173 -6 90 -12 184 -12 210 -1 53 5 57 84 55 l50 -2 16 -210z
m817 139 c77 -32 121 -102 122 -190 0 -119 -69 -212 -171 -229 -49 -8 -249 33
-256 53 -6 14 73 374 88 403 8 16 15 15 95 -2 47 -11 102 -26 122 -35z m327
-105 c44 -16 55 -24 50 -37 -4 -10 -39 -102 -78 -205 -69 -183 -72 -189 -97
-183 -48 9 -100 36 -100 51 0 15 123 343 141 378 12 22 16 21 84 -4z m-1701
-108 c100 -66 56 -221 -61 -221 -58 0 -123 64 -123 120 0 57 66 120 125 120
17 0 43 -9 59 -19z m2022 -52 c32 -18 54 -37 54 -47 -1 -44 -87 -426 -97 -429
-6 -2 -34 10 -62 28 l-52 31 7 43 c6 43 6 44 -35 64 -51 27 -57 26 -93 -4
l-30 -25 -41 25 c-23 13 -42 29 -42 35 0 13 314 310 328 310 5 0 34 -14 63
-31z m-2534 -118 l32 -28 -27 -18 c-15 -9 -27 -21 -27 -26 0 -5 45 -67 100
-138 55 -71 100 -134 100 -139 0 -12 -34 -22 -77 -22 -34 0 -46 9 -100 75 -18
21 -36 36 -39 32 -4 -4 -10 -24 -13 -44 -6 -35 -9 -38 -44 -41 -32 -3 -38 0
-47 22 -11 30 -18 32 -48 10 -22 -15 -27 -38 -16 -69 10 -26 65 -48 124 -49
55 -1 55 -1 58 -35 l3 -33 -93 4 c-106 5 -148 22 -178 71 -57 93 8 197 123
197 48 0 57 9 57 56 0 46 -27 38 -123 -33 -101 -76 -247 -201 -247 -212 0 -3
18 -14 40 -24 47 -22 62 -45 70 -107 5 -41 8 -45 35 -48 16 -2 56 2 88 9 51
11 60 10 75 -4 22 -23 10 -33 -79 -64 -78 -27 -179 -40 -223 -29 -35 9 -66 41
-66 69 0 12 13 33 29 47 24 20 28 29 21 47 -5 12 -21 25 -35 29 -21 5 -32 -1
-66 -40 -29 -33 -48 -46 -67 -46 -36 0 -72 10 -72 20 0 4 20 30 45 58 25 27
45 53 45 57 0 4 -28 5 -62 2 -44 -4 -66 -11 -73 -22 -32 -54 -39 -58 -78 -44
-20 7 -39 19 -41 26 -7 16 53 94 84 110 16 8 68 13 138 13 l113 0 92 81 c146
129 393 309 424 309 7 0 27 -13 45 -29z m2849 -100 l43 -38 -17 -114 c-10 -63
-20 -123 -23 -134 -3 -15 1 -13 18 9 67 86 120 146 128 146 5 0 25 -14 45 -31
27 -24 33 -35 26 -47 -7 -13 -240 -292 -266 -321 -6 -5 -75 51 -85 68 -5 10 0
70 14 154 12 75 22 136 21 134 -1 -1 -37 -44 -79 -95 -82 -99 -80 -98 -134
-52 -13 11 -22 26 -20 35 4 21 261 324 274 325 6 0 31 -17 55 -39z m-1591 -78
c0 -9 16 -13 45 -13 53 0 56 -8 15 -35 -32 -21 -36 -38 -20 -81 14 -36 7 -40
-28 -15 -37 26 -43 26 -76 0 -34 -27 -41 -20 -26 27 12 36 12 38 -21 65 l-34
27 39 4 c40 3 48 10 67 63 l11 30 14 -30 c7 -16 13 -36 14 -42z m-624 -105
c21 6 40 10 41 8 2 -2 -6 -20 -17 -39 l-22 -36 28 -36 27 -36 -49 6 c-47 7
-50 6 -68 -25 -21 -37 -36 -26 -36 27 0 29 -4 33 -42 44 l-43 12 43 18 c41 18
42 19 42 66 l1 48 28 -35 c28 -33 30 -34 67 -22z m1332 -52 c17 -5 32 -12 32
-16 0 -4 -18 -14 -40 -23 -38 -15 -40 -18 -40 -59 l-1 -43 -29 34 c-28 33 -31
34 -67 23 -20 -6 -39 -9 -42 -7 -2 3 5 19 17 35 26 35 27 48 6 78 -21 30 -13
37 28 23 32 -11 34 -10 63 26 l30 37 5 -49 c5 -45 8 -50 38 -59z m-509 -122
c749 -110 1327 -674 1447 -1413 66 -405 -26 -840 -250 -1186 -160 -245 -412
-472 -671 -602 -81 -41 -230 -95 -342 -123 -130 -34 -162 -37 -144 -16 29 34
235 168 287 186 31 11 102 43 158 71 420 213 725 606 826 1068 78 351 33 702
-131 1036 -333 679 -1116 1022 -1849 810 -410 -117 -772 -420 -967 -808 -62
-125 -119 -301 -144 -448 -18 -106 -20 -150 -16 -304 7 -261 43 -405 159 -647
58 -121 60 -127 44 -149 -20 -30 -21 -63 0 -79 16 -14 16 -59 0 -63 -15 -3
-101 128 -155 238 -118 236 -173 476 -173 750 0 276 54 509 172 746 88 175
167 285 314 438 194 200 422 343 683 430 84 28 257 65 343 74 95 10 312 6 409
-9z m-1383 -131 c-19 -66 -19 -70 19 -93 41 -25 37 -37 -15 -42 -31 -3 -35 -7
-46 -48 l-12 -45 -17 43 c-19 44 -21 45 -72 42 -41 -2 -41 4 -3 36 29 25 29
26 15 61 -22 52 -19 56 25 33 l39 -20 28 25 c33 29 46 32 39 8z m3302 -76 c81
-126 92 -150 92 -192 0 -55 -25 -94 -76 -116 -37 -17 -50 -18 -85 -9 -23 6
-42 10 -44 8 -1 -2 -25 -38 -54 -80 -28 -43 -53 -78 -55 -78 -7 0 -76 111 -76
123 0 7 20 42 45 77 70 100 60 118 -33 59 -35 -21 -67 -39 -72 -39 -5 0 -25
24 -45 52 -27 41 -32 55 -22 64 24 23 342 224 353 224 7 0 39 -42 72 -93z
m-953 63 c23 -25 35 -25 79 1 41 24 42 22 20 -29 -15 -37 -15 -37 15 -63 17
-14 31 -29 31 -32 0 -4 -20 -7 -45 -7 -42 0 -46 -2 -61 -37 l-16 -38 -18 42
c-17 39 -22 42 -62 45 l-43 3 38 24 c38 23 39 25 32 68 -7 47 2 54 30 23z
m-1027 -31 c109 -11 257 -46 353 -82 71 -27 209 -93 224 -108 5 -5 -103 -9
-288 -9 l-296 0 -46 32 c-75 53 -198 50 -338 -8 -56 -24 -63 -24 -295 -22
l-237 3 90 47 c150 77 321 126 530 151 66 8 211 6 303 -4z m-100 -173 c39 -20
78 -65 97 -110 19 -45 31 -192 21 -259 l-7 -47 -123 0 -123 0 -7 31 c-15 77
-102 112 -221 91 -168 -31 -500 -213 -760 -417 -87 -68 -152 -124 -375 -322
-26 -23 -50 -40 -53 -37 -2 3 -1 21 3 40 6 28 34 60 122 143 430 407 796 690
1063 821 55 27 125 56 155 64 71 19 173 20 208 2z m-2137 -56 c-14 -56 -19
-52 133 -127 80 -40 146 -77 146 -82 0 -6 -21 -24 -46 -42 -40 -27 -49 -30
-70 -20 -14 6 -26 11 -28 11 -2 0 -6 -22 -8 -49 -6 -65 -29 -98 -85 -123 -33
-15 -55 -18 -86 -13 -49 9 -59 19 -46 52 13 35 11 59 -7 77 -32 33 -51 20 -80
-54 -16 -42 -24 -74 -18 -79 5 -5 72 -29 149 -55 78 -26 147 -51 155 -56 11
-7 4 -17 -30 -49 -25 -22 -48 -40 -51 -41 -4 0 -64 20 -133 45 -70 25 -131 45
-135 45 -10 0 -34 -78 -27 -89 3 -4 27 -11 53 -15 117 -16 273 -49 273 -58 0
-6 -14 -28 -32 -50 l-32 -40 -55 6 c-112 14 -102 19 -123 -57 -15 -53 -17 -71
-7 -83 21 -26 64 -16 128 31 34 25 65 45 70 45 18 0 23 -41 7 -64 -22 -34 -96
-93 -139 -111 -50 -21 -120 -20 -140 3 -27 29 -28 64 -9 164 10 54 16 100 14
103 -3 3 -15 5 -27 5 -20 0 -24 -10 -44 -126 -25 -141 -39 -324 -25 -324 5 0
26 4 47 9 50 12 103 -3 123 -34 9 -14 22 -25 28 -25 14 0 75 63 99 103 17 26
67 40 67 18 0 -19 -35 -90 -75 -152 -66 -102 -141 -148 -195 -119 -19 10 -22
18 -17 56 6 53 -9 69 -53 59 l-30 -7 0 -84 c0 -60 4 -84 13 -85 17 -2 23 -1
186 16 80 8 147 12 149 10 5 -5 -26 -95 -37 -107 -4 -5 -252 -38 -286 -38 -9
0 -5 -59 5 -65 5 -3 75 6 156 20 154 26 195 30 193 18 0 -5 -8 -30 -17 -58
-15 -43 -21 -50 -50 -56 -44 -9 -46 -12 -36 -61 9 -43 10 -43 52 -43 52 0 62
-13 62 -79 0 -57 -33 -124 -66 -132 -30 -8 -60 10 -76 46 -7 16 -16 30 -19 30
-16 0 -15 -16 3 -57 56 -126 -43 -241 -131 -152 -78 77 -58 199 45 270 24 16
44 35 44 41 0 6 -8 32 -17 59 l-18 49 -45 -6 c-25 -3 -49 -10 -53 -14 -5 -4
-3 -35 4 -70 l12 -62 -31 -31 c-22 -22 -35 -28 -42 -21 -13 13 -52 196 -76
354 -13 84 -18 177 -18 345 -1 217 8 313 40 474 l7 33 -31 -16 c-39 -20 -86
-21 -106 -1 -41 41 -27 167 28 237 40 53 96 92 162 113 l51 16 32 82 c17 45
62 141 99 212 59 115 71 131 97 137 48 10 81 5 76 -12z m1685 -19 c-3 -5 -36
-27 -73 -49 -38 -22 -113 -72 -167 -111 l-100 -71 -188 0 c-109 0 -188 4 -188
9 0 12 125 125 205 185 l60 45 228 1 c128 0 226 -4 223 -9z m1280 -37 c36 -26
100 -80 142 -120 l77 -73 -450 2 -450 2 -7 74 c-4 40 -12 90 -18 110 -5 20
-10 39 -10 44 0 4 147 7 326 7 l325 0 65 -46z m-2507 -191 c6 -34 11 -39 50
-52 l43 -13 -38 -22 c-37 -20 -38 -23 -35 -66 l3 -45 -34 33 c-34 32 -35 32
-71 17 -50 -21 -51 -20 -25 24 l23 40 -28 28 c-15 16 -27 32 -27 37 0 4 19 4
43 1 40 -6 43 -5 61 29 22 42 27 40 35 -11z m3271 -14 c13 -16 21 -17 55 -9
22 5 41 7 44 4 2 -2 -9 -18 -25 -35 l-29 -30 23 -40 c25 -43 21 -46 -30 -24
-34 14 -36 13 -63 -15 -33 -35 -40 -32 -40 18 0 33 -4 39 -40 56 l-40 19 35
10 c19 5 41 11 48 13 6 2 12 14 12 28 0 13 3 32 7 42 6 17 7 17 17 0 6 -10 18
-27 26 -37z m727 23 c15 -9 53 -98 52 -120 0 -16 -319 -283 -345 -290 -10 -3
-54 87 -54 112 0 6 14 23 32 38 l32 26 -20 49 c-19 46 -21 48 -61 49 -22 1
-45 4 -50 7 -14 9 -38 86 -29 94 4 4 96 15 204 24 108 9 204 17 212 17 8 1 20
-2 27 -6z m-3200 -60 c9 -6 -31 -45 -125 -125 l-137 -117 -117 0 c-88 0 -118
3 -118 13 0 15 102 166 140 207 l28 30 159 0 c87 0 164 -4 170 -8z m714 -13
c16 -25 9 -50 -18 -74 -27 -22 -27 -24 -10 -42 21 -24 22 -76 1 -97 -13 -14
-61 -16 -372 -16 l-357 1 25 20 c30 25 213 134 302 181 59 31 71 33 198 39
167 8 220 5 231 -12z m1242 12 c25 -10 124 -137 158 -203 l19 -38 -519 0
c-301 0 -530 4 -544 9 -36 14 -42 45 -18 91 l20 40 -22 11 c-27 15 -37 28 -37
55 0 44 1 44 471 44 252 0 458 -4 472 -9z m-964 -102 c19 -7 31 -18 31 -28 0
-28 -9 -30 -57 -14 -44 15 -133 14 -220 -3 -26 -5 -33 -3 -33 10 0 47 180 69
279 35z m-53 -79 c23 -12 49 -32 58 -45 10 -15 39 -31 83 -45 272 -90 455
-285 524 -560 18 -72 21 -103 16 -205 -8 -178 -59 -318 -161 -447 -101 -127
-278 -238 -433 -272 -90 -20 -246 -20 -338 -1 -133 28 -294 122 -390 226 -136
148 -205 326 -205 530 0 335 212 620 543 729 37 12 89 39 115 59 26 21 54 40
62 44 31 12 85 6 126 -13z m-1266 -108 c0 -5 -56 -61 -125 -125 -169 -158
-203 -158 -140 -2 57 142 49 135 165 135 55 0 100 -4 100 -8z m856 -5 c-10 -7
-52 -34 -93 -60 -41 -27 -132 -76 -201 -110 l-127 -62 -249 -3 c-137 -2 -253
1 -257 5 -9 9 71 79 210 185 l76 58 330 -1 c259 0 326 -3 311 -12z m1644 -19
c30 -49 82 -189 76 -204 -4 -12 -72 -14 -387 -14 l-381 0 -51 54 c-65 67 -126
114 -199 156 -32 17 -58 34 -58 36 0 2 221 4 490 4 l490 0 20 -32z m1170 -30
c9 -37 11 -61 5 -67 -15 -13 -393 -104 -408 -98 -15 6 -43 115 -32 125 10 11
377 101 400 99 15 -2 23 -15 35 -59z m-3132 -215 c-23 -38 -55 -97 -72 -133
l-31 -65 -3 89 c-2 49 -1 95 2 102 4 11 116 70 138 73 4 1 -12 -29 -34 -66z
m3175 -33 l2 -64 -152 -21 c-84 -11 -155 -24 -158 -27 -4 -3 -1 -41 5 -83 6
-42 10 -79 7 -81 -2 -3 -27 -7 -55 -11 -49 -5 -50 -5 -56 23 -13 70 -37 256
-33 267 4 14 417 78 430 67 5 -4 9 -36 10 -70z m-4434 25 c19 -33 23 -35 61
-29 47 8 50 0 13 -38 -27 -28 -27 -29 -10 -57 27 -46 21 -53 -25 -30 l-42 22
-26 -32 c-32 -37 -42 -31 -34 19 6 36 4 39 -37 63 l-43 26 42 7 c44 7 62 25
62 63 0 31 15 25 39 -14z m3761 -5 c0 -34 6 -38 62 -49 l43 -7 -39 -24 c-37
-23 -38 -25 -32 -67 6 -49 -1 -53 -34 -18 -27 29 -40 31 -80 10 -34 -17 -35
-15 -18 32 11 31 10 35 -23 69 l-34 35 52 -7 53 -7 15 37 c18 41 35 39 35 -4z
m-3340 -9 c0 -6 -4 -13 -10 -16 -5 -3 -10 1 -10 9 0 9 5 16 10 16 6 0 10 -4
10 -9z m680 -1 c0 -6 -34 -60 -76 -120 l-76 -110 -294 0 c-273 0 -294 1 -294
18 -1 9 48 63 107 119 l108 103 263 0 c175 0 262 -3 262 -10z m2229 -27 c22
-81 31 -130 31 -165 l0 -38 -349 0 -348 0 -23 63 c-12 34 -35 86 -51 114 -16
29 -29 55 -29 58 0 3 171 5 380 5 l379 0 10 -37z m-2207 -1163 l-7 -435 -440
-152 c-242 -83 -441 -150 -443 -148 -6 5 31 74 38 70 4 -2 7 2 7 9 0 7 59 119
131 248 73 129 132 241 132 249 0 8 -7 23 -15 33 -28 37 -29 35 99 240 52 84
82 144 88 174 5 28 27 75 53 115 61 92 81 145 110 301 l24 133 113 163 113
162 2 -364 c2 -199 -1 -559 -5 -798z m-236 866 c-13 -24 -27 -71 -31 -103 -12
-101 8 -94 -263 -91 l-237 3 -3 118 -3 117 280 0 280 0 -23 -44z m2489 -29 c4
-40 3 -93 -2 -117 l-9 -45 -328 -3 c-207 -1 -333 1 -341 8 -7 6 -12 48 -13
120 l-2 110 344 0 344 0 7 -73z m1105 15 c0 -72 -10 -79 -127 -99 -57 -9 -103
-19 -103 -23 0 -7 36 -20 138 -50 l73 -21 -3 -57 -3 -57 -112 -19 c-62 -11
-113 -22 -113 -26 0 -3 48 -22 108 -41 l107 -34 -3 -49 c-1 -27 -4 -51 -6 -53
-4 -4 -327 105 -393 133 -30 12 -33 17 -33 57 0 65 12 73 126 91 56 9 105 16
110 17 5 0 -43 17 -106 38 l-115 37 3 54 c2 30 8 59 13 64 8 9 369 82 417 85
20 1 22 -4 22 -47z m-3657 -261 c-1 -39 -65 -168 -95 -193 -17 -15 -41 -18
-162 -18 -77 0 -147 4 -154 9 -15 9 -51 157 -52 209 l0 32 233 -2 232 -3 -2
-34z m2537 5 c0 -46 -30 -188 -42 -204 -8 -9 -82 -12 -327 -10 l-316 3 -3 109
c-1 61 0 116 2 123 4 10 74 13 346 13 l340 0 0 -34z m-3389 -52 c26 -25 28
-25 57 -10 46 24 54 20 35 -19 l-17 -35 35 -36 34 -37 -48 7 c-47 6 -48 5 -69
-30 -22 -38 -38 -32 -38 14 0 24 -4 27 -65 37 l-40 7 41 24 c40 24 42 27 37
64 -7 47 1 49 38 14z m1237 -130 c17 -33 47 -82 66 -107 20 -26 36 -49 36 -52
0 -3 -22 -5 -49 -5 -65 0 -81 -7 -81 -36 0 -17 -6 -24 -20 -24 -19 0 -20 6
-19 193 l0 192 18 -50 c10 -27 32 -77 49 -111z m2577 117 c-6 -38 -5 -41 37
-68 l43 -27 -42 -6 c-51 -7 -48 -5 -60 -55 l-10 -40 -22 38 c-21 34 -27 37
-69 37 l-46 0 27 28 c31 32 33 49 11 80 -22 32 -9 40 27 19 41 -23 56 -22 75
8 24 37 37 31 29 -14z m-1135 -182 c0 -147 -1 -160 -17 -157 -10 2 -19 12 -22
23 -5 27 -19 35 -68 35 -24 0 -43 1 -43 3 0 2 24 40 53 85 30 44 62 101 71
126 10 25 20 46 22 46 2 0 4 -72 4 -161z m1544 -60 c214 -135 202 -121 179
-200 l-19 -64 -120 -6 c-196 -11 -332 -14 -338 -8 -3 2 3 32 12 64 17 58 20
60 57 66 44 7 60 25 70 77 5 29 3 39 -11 47 -45 26 -53 42 -42 82 13 50 17 55
35 49 8 -4 88 -52 177 -107z m-3504 22 c0 -32 -58 -155 -90 -189 -28 -29 -75
-29 -94 1 -16 24 -86 194 -86 208 0 5 61 9 135 9 l135 0 0 -29z m2610 16 c0
-13 -30 -92 -68 -179 l-21 -48 -271 0 -270 0 0 120 0 120 315 0 c253 0 315 -3
315 -13z m-1950 -112 c7 -9 10 -18 7 -21 -10 -11 -37 5 -37 21 0 19 14 19 30
0z m1130 -5 c0 -11 -7 -20 -15 -20 -18 0 -19 12 -3 28 16 16 18 15 18 -8z
m-1185 -52 c32 -14 43 -53 24 -87 -19 -34 -61 -39 -88 -12 -28 28 -26 56 4 86
28 29 26 29 60 13z m1293 -16 c17 -22 15 -62 -5 -84 -35 -39 -93 -9 -93 48 0
57 63 80 98 36z m-1119 -22 c132 -90 272 -132 439 -131 167 0 299 41 432 131
39 27 65 39 71 33 6 -6 9 -39 7 -74 -2 -51 -6 -63 -18 -60 -64 15 -86 12 -130
-18 l-45 -31 -324 0 -325 0 -40 28 c-30 21 -51 27 -90 27 l-51 0 -3 68 c-2 42
1 67 8 67 5 0 37 -18 69 -40z m1701 -76 c0 -18 -75 -133 -127 -193 l-35 -41
-166 2 -167 3 -3 109 c-1 61 0 116 2 123 4 10 57 13 251 13 218 0 245 -2 245
-16z m-1661 -48 c31 -17 51 -54 51 -97 0 -46 -56 -99 -105 -99 -29 0 -45 8
-71 34 -88 88 13 219 125 162z m884 3 c36 -16 60 -64 54 -106 -21 -129 -208
-115 -207 15 1 76 81 124 153 91z m-1037 -14 c-20 -15 -167 -22 -200 -9 -41
16 -6 24 102 24 105 -1 115 -2 98 -15z m1292 3 c-7 -21 -191 -23 -208 -3 -11
13 0 15 100 15 85 0 111 -3 108 -12z m-2380 -70 c-3 -41 -1 -44 35 -62 40 -19
36 -36 -8 -36 -29 0 -45 -19 -45 -51 0 -41 -17 -44 -35 -8 -16 30 -19 31 -61
24 -49 -7 -54 0 -24 35 23 27 24 36 5 70 -22 38 -18 41 26 23 l41 -16 31 32
c17 17 33 31 35 31 2 0 2 -19 0 -42z m3291 -4 c47 18 49 16 21 -29 l-20 -33
25 -30 c34 -40 32 -46 -14 -38 -37 6 -41 4 -62 -31 l-23 -37 -9 34 c-5 19 -11
40 -13 47 -1 7 -19 15 -38 19 -45 8 -45 16 0 37 35 17 35 18 28 65 l-6 47 35
-34 36 -34 40 17z m-2224 -22 l4 -53 -97 3 -97 3 -3 53 -3 53 96 -3 97 -3 3
-53z m665 2 c0 -47 -3 -55 -17 -52 -13 2 -19 15 -21 46 -2 24 -9 45 -16 48 -8
3 -40 2 -72 -3 -51 -7 -59 -11 -62 -31 -4 -28 14 -29 21 -1 5 17 12 20 54 17
48 -3 48 -3 48 -38 l0 -35 -72 -3 -73 -3 0 45 c0 61 -18 68 -22 9 l-3 -48 -97
-3 -97 -3 4 53 c2 29 4 54 5 56 0 1 95 2 210 2 l210 0 0 -56z m220 24 c0 -18
3 -43 6 -56 l7 -23 -104 3 -104 3 -3 39 c-5 64 -3 66 103 66 l95 0 0 -32z
m433 -4 c11 -65 -1 -74 -103 -74 l-90 0 1 55 2 55 92 0 92 0 6 -36z m1280 10
c87 -43 101 -45 240 -28 71 9 133 12 137 7 4 -4 -6 -36 -21 -70 -28 -61 -30
-63 -67 -64 -20 0 -54 -3 -76 -7 l-39 -7 48 -58 47 -58 -20 -47 c-11 -25 -25
-48 -30 -50 -6 -2 -46 44 -90 101 -44 57 -86 108 -94 113 -7 6 -44 23 -81 39
-37 16 -70 33 -74 38 -5 9 22 80 40 105 13 17 20 16 80 -14z m-2545 -124 c21
-19 35 -20 512 -20 477 0 491 1 510 20 18 18 33 20 129 20 l109 0 1 -153 2
-153 -134 -77 c-74 -42 -137 -77 -140 -77 -4 0 -7 14 -7 31 0 28 -2 30 -32 27
-29 -3 -33 -7 -36 -35 -3 -28 0 -32 25 -35 26 -3 23 -6 -37 -42 -47 -29 -80
-41 -120 -45 -50 -5 -55 -8 -58 -32 -2 -21 -22 -36 -105 -84 -56 -32 -107 -58
-112 -58 -10 0 -218 116 -243 136 -9 7 -9 13 -1 23 9 11 5 14 -25 14 -40 0
-46 2 -149 62 l-68 39 21 28 20 29 -34 6 c-18 4 -46 2 -60 -4 -22 -8 -36 -5
-74 14 -26 14 -56 31 -67 40 -20 15 -19 17 23 56 23 23 42 43 42 45 0 3 -25 5
-55 5 l-55 0 0 -35 c0 -25 -4 -35 -15 -35 -14 0 -16 21 -14 155 l1 155 112 0
c98 0 115 -2 134 -20z m888 5 c17 -13 -27 -14 -376 -14 -349 0 -393 1 -376 14
29 22 723 22 752 0z m684 -43 c0 -26 -245 -232 -276 -232 -11 0 -14 24 -14
120 l0 120 145 0 c80 0 145 -4 145 -8z m882 -120 c8 -8 -31 -103 -47 -114 -5
-4 -19 -8 -31 -8 -29 0 -64 -36 -64 -65 0 -14 4 -25 9 -25 4 0 41 25 82 55 65
48 80 55 121 55 82 0 137 -71 122 -157 -16 -96 -106 -183 -187 -183 l-40 0 7
41 c9 58 23 79 51 79 26 0 55 33 55 62 0 29 -23 21 -85 -32 -80 -68 -118 -79
-178 -52 -54 24 -80 67 -79 128 1 83 80 189 163 221 33 12 86 10 101 -5z
m-2604 -81 c11 -6 7 -13 -14 -30 -14 -11 -31 -21 -35 -21 -10 0 -12 44 -2 53
9 10 35 8 51 -2z m-118 -61 c0 -16 -6 -32 -12 -37 -7 -4 -139 -41 -293 -80
-285 -74 -310 -83 -105 -39 320 70 395 84 402 80 12 -8 9 -112 -3 -120 -21
-13 -849 -73 -849 -61 0 10 841 297 853 290 4 -2 7 -17 7 -33z m1974 -80 c15
-38 18 -40 58 -40 l42 0 -29 -30 c-28 -29 -28 -30 -12 -70 17 -44 10 -49 -33
-24 -29 18 -39 16 -79 -13 l-24 -17 7 46 c7 45 6 46 -31 69 l-38 24 48 8 c45
9 47 11 53 48 4 21 10 39 14 39 4 0 15 -18 24 -40z m-1679 -30 c-3 -5 -15 -10
-25 -10 -10 0 -22 5 -25 10 -4 6 7 10 25 10 18 0 29 -4 25 -10z m-217 -24 c27
-13 94 -40 151 -60 64 -22 134 -56 184 -89 45 -29 100 -64 122 -78 54 -32 30
-36 -94 -14 -115 21 -248 60 -353 104 l-78 33 0 64 c0 37 4 64 10 64 6 0 32
-11 58 -24z m-80 -110 c7 -32 -20 -106 -48 -136 -51 -55 -120 -34 -150 44
l-11 30 -23 -50 c-25 -54 -67 -94 -98 -94 -25 0 -88 62 -88 86 0 15 -6 12 -26
-13 -34 -44 -73 -44 -108 -2 l-26 31 -29 -31 c-35 -38 -54 -39 -87 -6 -20 20
-29 23 -44 15 -13 -7 -41 -2 -104 18 -77 24 -101 41 -78 56 4 3 168 17 363 31
194 15 386 30 424 35 101 11 129 9 133 -14z m161 -181 l43 15 -14 -23 c-43
-65 -43 -64 -25 -91 23 -35 22 -50 -2 -36 -33 17 -60 11 -83 -20 -30 -41 -38
-38 -38 14 0 42 -2 45 -35 56 -19 6 -35 15 -35 19 0 4 18 13 40 20 39 12 40
13 40 59 l1 47 32 -38 33 -38 43 16z m1273 8 c3 -45 5 -48 36 -54 48 -10 50
-17 9 -34 -33 -14 -37 -19 -37 -53 0 -54 -10 -59 -41 -21 -25 31 -29 32 -53
21 -50 -23 -59 -16 -34 27 l22 38 -22 28 c-27 34 -28 48 -2 41 11 -3 29 -8 40
-12 14 -4 25 4 42 30 13 20 26 36 30 36 4 0 8 -21 10 -47z m-631 -136 c-11
-30 -10 -34 19 -57 16 -14 30 -28 30 -32 0 -5 -18 -8 -40 -8 -37 0 -40 -2 -51
-40 -14 -47 -26 -51 -35 -12 -10 41 -23 52 -60 52 -42 0 -43 10 -5 38 27 20
29 24 18 57 -13 43 -6 52 25 31 29 -21 47 -20 78 4 29 22 36 12 21 -33z"/>
<path d="M3501 5366 c-23 -104 -23 -126 5 -126 84 0 136 148 73 211 -41 41
-53 27 -78 -85z"/>
<path d="M4146 5129 c-31 -37 -32 -45 -6 -59 22 -12 22 -13 39 53 11 45 1 47
-33 6z"/>
<path d="M5013 4418 c-28 -14 -29 -32 -2 -69 41 -58 98 -18 62 43 -21 37 -30
40 -60 26z"/>
<path d="M810 4130 c-13 -24 -5 -40 19 -40 10 0 31 -12 46 -26 24 -22 27 -31
22 -70 -2 -24 -3 -44 0 -44 42 0 68 91 39 135 -15 23 -83 65 -105 65 -6 0 -15
-9 -21 -20z"/>
<path d="M481 3744 c-31 -26 -57 -92 -43 -106 5 -5 23 -3 40 3 34 12 55 42 67
97 6 28 4 32 -13 32 -11 0 -34 -12 -51 -26z"/>
<path d="M684 2246 c-6 -27 3 -66 16 -66 11 0 18 34 13 64 -7 33 -21 34 -29 2z"/>
<path d="M5178 3963 c-39 -4 -43 -9 -32 -37 9 -23 25 -20 64 14 19 16 28 29
20 28 -8 -1 -32 -3 -52 -5z"/>
<path d="M2985 3701 c-7 -108 -2 -151 16 -151 5 0 9 56 9 130 0 72 -4 130 -9
130 -5 0 -12 -49 -16 -109z"/>
<path d="M3040 3680 c0 -74 4 -130 9 -130 17 0 21 36 16 141 -3 57 -5 107 -5
112 0 4 -4 7 -10 7 -6 0 -10 -50 -10 -130z"/>
<path d="M2934 3777 c-10 -28 1 -200 14 -205 9 -3 12 23 12 107 0 70 -4 111
-10 111 -6 0 -13 -6 -16 -13z"/>
<path d="M3090 3680 c0 -61 4 -110 9 -110 15 0 20 29 20 110 -1 82 -5 110 -20
110 -5 0 -9 -49 -9 -110z"/>
<path d="M2896 3708 c-5 -16 -5 -40 0 -55 l8 -28 4 28 c2 15 2 39 0 55 l-4 27
-8 -27z"/>
<path d="M3141 3680 c0 -40 2 -42 11 -22 8 16 8 28 0 45 -9 19 -11 17 -11 -23z"/>
<path d="M2780 3676 c-191 -78 -311 -185 -393 -350 -82 -167 -98 -359 -43
-531 112 -351 480 -560 836 -475 220 53 374 178 475 385 100 207 99 408 -5
620 -49 101 -113 181 -193 241 -67 51 -182 110 -234 120 -30 6 -33 4 -33 -19
0 -41 -18 -78 -56 -114 -20 -18 -34 -40 -32 -49 2 -9 31 -24 70 -38 192 -64
314 -227 326 -433 4 -78 1 -103 -18 -164 -41 -125 -126 -231 -230 -284 -235
-120 -509 -46 -645 174 -164 264 -26 620 276 712 76 23 89 44 44 73 -35 23
-58 62 -65 109 -3 22 -9 41 -15 43 -5 1 -35 -8 -65 -20z m-100 -161 c14 -16
13 -18 -65 -103 -22 -24 -30 -43 -30 -70 0 -35 -2 -37 -33 -40 -31 -3 -36 -9
-68 -75 -48 -103 -62 -199 -41 -299 20 -98 36 -132 65 -136 28 -4 39 -27 22
-47 -10 -12 -6 -23 19 -62 33 -50 38 -72 19 -91 -25 -25 -47 -12 -80 48 -29
53 -36 60 -64 60 -36 0 -51 22 -28 40 18 16 18 44 -2 122 -21 78 -23 205 -5
278 8 30 29 88 49 128 26 55 32 76 24 84 -16 16 -15 58 1 59 6 1 22 0 35 -1
17 -1 42 16 87 59 35 34 68 61 73 61 5 0 15 -7 22 -15z m764 -45 c53 -51 68
-60 99 -60 40 0 47 -14 25 -49 -10 -16 -6 -32 24 -98 20 -43 42 -98 49 -123
18 -69 13 -214 -10 -294 -19 -67 -19 -96 0 -96 5 0 9 -11 9 -25 0 -21 -5 -25
-30 -25 -25 0 -35 -9 -67 -57 -30 -45 -44 -58 -63 -58 -39 0 -39 44 0 101 24
33 29 49 21 57 -21 21 -13 47 15 47 20 0 29 8 44 43 56 127 46 282 -28 420
-21 38 -30 47 -52 47 -38 0 -55 22 -38 49 11 19 8 25 -33 68 -69 73 -74 80
-59 98 7 8 17 15 22 15 5 0 38 -27 72 -60z m-100 -878 c2 -4 -4 -9 -15 -9 -10
-1 -19 2 -19 8 0 11 27 12 34 1z m28 -72 c-2 -33 -8 -58 -13 -54 -5 3 -9 15
-9 27 0 20 -1 20 -17 4 -15 -14 -15 -21 -5 -37 10 -16 9 -18 -2 -14 -28 11
-28 38 0 62 32 28 25 40 -10 17 -22 -15 -26 -25 -26 -64 0 -30 -3 -41 -9 -32
-5 7 -14 10 -20 6 -19 -11 -44 15 -30 31 9 11 8 14 -4 14 -12 0 -17 -13 -20
-47 -3 -39 -5 -44 -11 -25 -5 12 -13 22 -18 22 -6 0 -7 -7 -4 -15 8 -22 -22
-31 -41 -12 -15 15 -14 15 6 10 16 -4 20 -2 16 9 -4 10 1 17 14 21 12 3 21 10
21 15 0 7 -11 7 -32 1 -41 -11 -55 -12 -43 -1 6 5 30 14 55 21 48 14 142 60
175 85 11 8 22 16 25 16 3 0 3 -27 2 -60z m-496 -44 c34 -9 93 -16 132 -16
l70 0 -5 -42 c-7 -50 -11 -57 -22 -39 -5 7 -11 12 -15 12 -21 -3 -26 1 -26 20
0 16 5 20 20 16 11 -3 20 -1 20 4 0 5 -13 9 -30 9 -28 0 -30 -3 -30 -37 -1
-33 -2 -36 -13 -21 -7 9 -22 16 -33 15 -15 -2 -18 3 -16 26 2 19 -2 27 -13 27
-11 0 -15 -11 -15 -40 l0 -41 -34 34 c-42 43 -66 53 -66 29 0 -10 5 -23 12
-30 8 -8 8 -12 1 -12 -6 0 -16 14 -23 31 -16 39 -4 54 33 40 15 -6 27 -7 27
-2 0 4 -18 15 -40 24 l-40 15 -1 -46 c-1 -26 -4 -37 -6 -26 -5 25 -43 64 -43
45 0 -7 5 -21 10 -32 6 -10 8 -19 6 -19 -15 0 -37 64 -31 91 4 18 3 29 -4 29
-6 0 -11 4 -11 10 0 5 28 -6 63 -24 34 -19 90 -42 123 -50z m80 12 l19 -21
-27 18 c-29 18 -34 25 -20 25 5 0 17 -10 28 -22z"/>
<path d="M3253 2480 c-12 -28 -8 -39 8 -23 6 6 9 19 6 29 -3 17 -5 16 -14 -6z"/>
<path d="M2730 2508 c0 -18 18 -34 28 -24 3 4 -2 14 -11 23 -16 16 -17 16 -17
1z"/>
<path d="M2857 2440 c-3 -13 0 -20 9 -20 8 0 14 9 14 20 0 11 -4 20 -9 20 -5
0 -11 -9 -14 -20z"/>
<path d="M2950 2436 c0 -9 5 -16 10 -16 6 0 10 4 10 9 0 6 -4 13 -10 16 -5 3
-10 -1 -10 -9z"/>
<path d="M3028 2403 c7 -3 16 -2 19 1 4 3 -2 6 -13 5 -11 0 -14 -3 -6 -6z"/>
<path d="M2970 3503 c0 -9 18 -13 55 -13 39 0 55 4 55 13 0 9 -16 13 -55 13
-37 -1 -55 -5 -55 -13z"/>
<path d="M2985 3420 c-3 -6 1 -7 9 -4 18 7 21 14 7 14 -6 0 -13 -4 -16 -10z"/>
<path d="M3111 3353 c7 -12 15 -20 18 -17 3 2 -3 12 -13 22 -17 16 -18 16 -5
-5z"/>
<path d="M3220 3345 c13 -14 26 -25 28 -25 3 0 -5 11 -18 25 -13 14 -26 25
-28 25 -3 0 5 -11 18 -25z"/>
<path d="M3010 3328 c0 -4 6 -8 14 -8 8 0 17 4 20 8 2 4 -4 8 -15 8 -10 0 -19
-4 -19 -8z"/>
<path d="M3048 3283 c7 -3 16 -2 19 1 4 3 -2 6 -13 5 -11 0 -14 -3 -6 -6z"/>
<path d="M2932 3245 c0 -16 3 -38 5 -48 5 -18 5 -18 20 0 14 17 14 17 9 0 -3
-11 -2 -16 4 -12 13 8 13 35 0 35 -5 0 -16 12 -24 28 l-15 27 1 -30z m28 -29
c0 -3 -4 -8 -10 -11 -5 -3 -10 -1 -10 4 0 6 5 11 10 11 6 0 10 -2 10 -4z"/>
<path d="M2972 3250 c7 -11 20 -20 30 -20 9 0 19 -6 21 -12 4 -10 6 -10 6 0 1
6 9 12 19 12 9 0 23 9 30 20 14 23 0 27 -18 5 -14 -17 -57 -16 -72 2 -17 21
-29 15 -16 -7z"/>
<path d="M3190 3255 c-7 -8 -17 -12 -23 -8 -6 4 -7 1 -3 -6 6 -9 13 -8 27 5
10 9 19 19 19 21 0 7 -8 2 -20 -12z"/>
<path d="M2750 3256 c0 -2 8 -10 18 -17 15 -13 16 -12 3 4 -13 16 -21 21 -21
13z"/>
<path d="M3085 3221 c-13 -16 -15 -25 -8 -32 8 -8 14 -5 23 10 17 32 7 46 -15
22z"/>
<path d="M3185 3220 c-4 -6 -11 -7 -17 -4 -7 4 -8 2 -4 -5 6 -9 11 -9 21 -1
10 8 14 7 18 -2 4 -8 6 -7 6 5 1 19 -14 23 -24 7z"/>
<path d="M2830 3200 c0 -11 2 -20 4 -20 2 0 6 9 9 20 3 11 1 20 -4 20 -5 0 -9
-9 -9 -20z"/>
<path d="M3214 3186 c-3 -8 -1 -22 4 -32 7 -13 9 -10 8 15 -1 34 -4 38 -12 17z"/>
<path d="M3123 3165 c0 -8 4 -12 9 -9 5 3 6 10 3 15 -9 13 -12 11 -12 -6z"/>
<path d="M2915 3159 c-4 -6 -4 -13 -1 -16 3 -4 6 -1 6 5 0 6 8 13 18 15 15 4
15 5 0 6 -9 0 -20 -4 -23 -10z"/>
<path d="M2985 3141 c3 -22 -1 -34 -10 -38 -8 -3 -15 -15 -14 -27 0 -20 1 -19
11 4 11 25 11 25 15 3 3 -13 9 -23 14 -23 6 0 7 5 4 11 -4 5 -8 28 -9 49 -1
22 -5 42 -9 46 -3 3 -4 -8 -2 -25z"/>
<path d="M2939 3140 l-24 -20 28 11 c15 7 27 16 27 21 0 12 -5 10 -31 -12z"/>
<path d="M2810 3123 c0 -14 3 -23 7 -19 10 10 11 46 1 46 -4 0 -8 -12 -8 -27z"/>
<path d="M3097 3119 c7 -7 15 -10 18 -7 3 3 -2 9 -12 12 -14 6 -15 5 -6 -5z"/>
<path d="M3187 3118 c-6 -17 29 -22 39 -6 5 7 2 8 -6 3 -7 -4 -15 -2 -20 5 -5
9 -8 8 -13 -2z"/>
<path d="M2907 3109 c6 -6 9 -17 6 -24 -7 -20 15 -55 35 -55 10 0 23 -5 29
-11 8 -8 14 -5 23 12 10 23 10 23 -4 5 -13 -16 -16 -17 -21 -4 -4 10 -14 14
-26 11 -18 -5 -27 11 -11 20 4 2 1 2 -5 1 -18 -5 -16 6 5 23 9 8 11 12 5 8 -7
-3 -13 -2 -13 3 0 6 -8 13 -17 17 -14 5 -15 3 -6 -6z"/>
<path d="M3082 3087 c-8 -9 -6 -21 8 -42 11 -17 20 -24 20 -17 0 8 5 10 13 6
7 -4 9 -3 4 2 -5 5 -14 9 -19 9 -6 0 -13 6 -16 13 -2 8 3 10 15 6 17 -5 17 -5
0 6 -9 6 -15 15 -12 21 9 14 -1 11 -13 -4z"/>
<path d="M2820 3081 c0 -6 4 -13 10 -16 6 -3 7 1 4 9 -7 18 -14 21 -14 7z"/>
<path d="M2860 3086 c0 -2 9 -6 20 -9 11 -3 18 -1 14 4 -5 9 -34 13 -34 5z"/>
<path d="M3173 3075 c0 -8 4 -12 9 -9 4 3 8 -2 8 -10 0 -9 -8 -16 -17 -16 -14
0 -15 -2 -4 -9 11 -7 10 -11 -5 -20 -15 -8 -16 -10 -3 -11 8 0 24 17 34 38 24
45 30 62 17 43 -8 -11 -14 -12 -25 -3 -11 9 -14 9 -14 -3z"/>
<path d="M2851 3056 c-8 -10 -9 -16 -1 -21 5 -3 10 -3 10 2 0 4 5 1 10 -7 7
-11 10 -11 10 -2 0 7 5 10 12 6 7 -4 8 -3 4 5 -4 6 -12 8 -18 5 -7 -5 -9 -1
-5 9 8 21 -6 22 -22 3z"/>
<path d="M3017 3033 c-13 -13 -7 -33 11 -32 10 0 12 3 5 6 -7 2 -13 9 -13 14
0 6 5 7 12 3 7 -4 8 -3 4 4 -8 14 -10 14 -19 5z"/>
<path d="M3055 3030 c-3 -6 1 -7 9 -4 18 7 21 14 7 14 -6 0 -13 -4 -16 -10z"/>
<path d="M2942 2960 c0 -14 2 -19 5 -12 2 6 2 18 0 25 -3 6 -5 1 -5 -13z"/>
<path d="M2871 2934 c0 -11 3 -14 6 -6 3 7 2 16 -1 19 -3 4 -6 -2 -5 -13z"/>
<path d="M3040 2941 c0 -6 4 -13 10 -16 6 -3 7 1 4 9 -7 18 -14 21 -14 7z"/>
<path d="M2996 2925 c-3 -9 -6 -22 -5 -28 0 -7 5 -1 10 12 5 13 8 26 5 28 -2
2 -6 -3 -10 -12z"/>
<path d="M3093 2915 c-3 -9 -3 -19 1 -22 3 -4 6 -1 6 6 0 7 4 9 10 6 6 -3 7 1
4 9 -8 20 -13 20 -21 1z"/>
<path d="M2910 2874 c0 -8 5 -12 10 -9 6 4 8 11 5 16 -9 14 -15 11 -15 -7z"/>
<path d="M2900 2836 c0 -8 -6 -17 -12 -19 -7 -3 -3 -6 9 -6 16 -1 20 3 16 19
-6 23 -13 26 -13 6z"/>
<path d="M3136 2825 c4 -8 11 -15 16 -15 6 0 5 6 -2 15 -7 8 -14 15 -16 15 -2
0 -1 -7 2 -15z"/>
<path d="M2970 2804 c-19 -7 -30 -13 -23 -13 7 -1 10 -8 6 -18 -5 -17 -5 -17
8 -1 8 10 23 24 34 32 23 18 21 18 -25 0z"/>
<path d="M3048 2813 c7 -3 16 -2 19 1 4 3 -2 6 -13 5 -11 0 -14 -3 -6 -6z"/>
<path d="M2805 2800 c-4 -6 -2 -17 4 -23 15 -15 25 -2 13 19 -7 12 -11 13 -17
4z"/>
<path d="M3224 2803 c4 -6 -2 -13 -12 -15 -14 -2 -16 -9 -11 -33 l7 -30 1 28
c1 28 25 38 34 15 3 -7 6 -8 6 -2 1 5 -6 19 -15 30 -8 10 -13 14 -10 7z"/>
<path d="M2790 2685 c0 -8 4 -15 10 -15 5 0 7 7 4 15 -4 8 -8 15 -10 15 -2 0
-4 -7 -4 -15z"/>
<path d="M3228 2676 c-10 -7 -18 -16 -18 -19 0 -12 28 4 34 19 6 17 6 17 -16
0z"/>
<path d="M2810 2660 c-13 -8 -12 -10 3 -10 9 0 17 5 17 10 0 12 -1 12 -20 0z"/>
<path d="M3000 2660 c-9 -6 -10 -10 -3 -10 6 0 15 5 18 10 8 12 4 12 -15 0z"/>
<path d="M2850 2634 c0 -7 5 -16 10 -19 6 -3 10 0 10 7 0 11 2 10 9 0 6 -11 9
-9 13 6 4 15 0 20 -18 20 -13 0 -24 -6 -24 -14z"/>
<path d="M3140 2629 c0 -5 4 -8 9 -4 5 3 12 1 16 -5 9 -15 25 -12 25 5 0 9 -9
15 -25 15 -14 0 -25 -5 -25 -11z"/>
<path d="M1973 2593 l-73 -84 0 -136 0 -135 23 16 c12 9 41 29 64 44 23 15 47
38 53 52 6 16 9 84 8 176 l-3 150 -72 -83z"/>
<path d="M1740 1904 c-14 -10 -31 -24 -37 -32 -13 -16 -18 -104 -7 -115 3 -3
21 4 40 16 32 21 34 25 34 85 0 34 -1 62 -3 62 -1 0 -14 -7 -27 -16z"/>
<path d="M1612 1794 c-17 -12 -22 -25 -22 -60 0 -48 5 -52 38 -28 17 12 22 25
22 60 0 48 -5 52 -38 28z"/>
<path d="M1522 1708 c-17 -22 -23 -56 -12 -63 18 -11 40 15 40 46 0 31 -11 37
-28 17z"/>
<path d="M1448 1634 c-5 -4 -8 -16 -8 -28 0 -14 3 -17 11 -9 6 6 9 19 7 28 -1
9 -6 13 -10 9z"/>
<path d="M5240 2415 c-5 -14 -10 -28 -10 -31 0 -2 26 -4 57 -4 60 0 60 3 1 39
l-38 23 -10 -27z"/>
<path d="M2280 1945 c0 -33 2 -35 35 -35 33 0 35 2 35 35 0 33 -2 35 -35 35
-33 0 -35 -2 -35 -35z"/>
<path d="M2450 1923 l0 -57 55 54 c30 30 55 56 55 57 0 2 -25 3 -55 3 l-55 0
0 -57z m75 38 c7 -12 -44 -53 -56 -45 -11 6 -12 38 -2 47 10 10 51 8 58 -2z"/>
<path d="M2660 1945 c0 -33 2 -35 35 -35 33 0 35 2 35 35 0 33 -2 35 -35 35
-33 0 -35 -2 -35 -35z"/>
<path d="M2840 1923 l0 -57 55 54 c30 30 55 56 55 57 0 2 -25 3 -55 3 l-55 0
0 -57z m70 39 c0 -5 -11 -19 -25 -32 l-25 -23 0 31 c0 27 4 32 25 32 14 0 25
-4 25 -8z"/>
<path d="M3040 1944 c0 -34 1 -35 33 -32 28 3 32 7 35 36 3 31 2 32 -32 32
-35 0 -36 -1 -36 -36z"/>
<path d="M3230 1923 l0 -57 55 54 c30 30 55 56 55 57 0 2 -25 3 -55 3 l-55 0
0 -57z m70 40 c-1 -18 -41 -56 -50 -47 -17 17 1 54 26 54 13 0 24 -3 24 -7z"/>
<path d="M3412 1948 c2 -26 8 -34 26 -36 38 -6 49 3 44 37 -4 28 -8 31 -39 31
-33 0 -34 -2 -31 -32z"/>
<path d="M3620 1923 l0 -57 55 54 c30 30 55 56 55 57 0 2 -25 3 -55 3 l-55 0
0 -57z m70 39 c0 -5 -11 -19 -24 -31 -20 -19 -24 -20 -29 -7 -10 25 3 46 29
46 13 0 24 -4 24 -8z"/>
<path d="M2457 1813 c-4 -3 -7 -19 -7 -35 0 -25 3 -28 35 -28 33 0 35 2 35 35
0 32 -3 35 -28 35 -16 0 -32 -3 -35 -7z"/>
<path d="M2660 1763 l0 -57 55 54 c30 30 55 56 55 57 0 2 -25 3 -55 3 l-55 0
0 -57z m70 40 c0 -10 -42 -53 -52 -53 -10 0 -11 44 -1 53 8 9 53 9 53 0z"/>
<path d="M2840 1785 c0 -33 2 -35 35 -35 33 0 35 2 35 35 0 33 -2 35 -35 35
-33 0 -35 -2 -35 -35z"/>
<path d="M3040 1763 l0 -57 55 54 c30 30 55 56 55 57 0 2 -25 3 -55 3 l-55 0
0 -57z m70 41 c0 -3 -10 -19 -21 -36 -25 -34 -45 -25 -35 16 5 19 13 26 31 26
14 0 25 -3 25 -6z"/>
<path d="M3234 1806 c-12 -31 1 -51 32 -54 25 -2 33 1 37 18 3 12 3 28 0 36
-7 18 -62 18 -69 0z"/>
<path d="M3410 1763 l0 -57 55 54 c30 30 55 56 55 57 0 2 -25 3 -55 3 l-55 0
0 -57z m73 40 c8 -7 -31 -53 -45 -53 -4 0 -8 14 -8 30 0 25 4 30 23 30 13 0
27 -3 30 -7z"/>
<path d="M3627 1813 c-4 -3 -7 -19 -7 -35 0 -25 3 -28 35 -28 33 0 35 2 35 35
0 32 -3 35 -28 35 -16 0 -32 -3 -35 -7z"/>
<path d="M2660 1624 c0 -34 1 -35 33 -32 28 3 32 7 35 36 3 31 2 32 -32 32
-35 0 -36 -1 -36 -36z"/>
<path d="M2840 1610 c0 -45 2 -50 18 -41 9 5 35 28 57 50 l39 41 -57 0 -57 0
0 -50z m70 33 c0 -10 -42 -53 -52 -53 -10 0 -11 44 -1 53 8 9 53 9 53 0z"/>
<path d="M3040 1624 c0 -34 1 -35 33 -32 28 3 32 7 35 36 3 31 2 32 -32 32
-35 0 -36 -1 -36 -36z"/>
<path d="M3230 1613 c0 -51 13 -52 14 0 1 27 5 32 29 35 29 4 34 -6 15 -28 -7
-8 -1 -4 15 9 15 14 27 26 27 28 0 2 -22 3 -50 3 l-50 0 0 -47z"/>
<path d="M2857 1494 c-4 -4 -7 -20 -7 -36 0 -25 3 -28 36 -28 34 0 35 1 32 33
-2 26 -8 33 -28 35 -14 2 -29 0 -33 -4z"/>
<path d="M3040 1443 l0 -57 55 54 c30 30 55 56 55 57 0 2 -25 3 -55 3 l-55 0
0 -57z m58 15 c-20 -30 -48 -36 -48 -10 0 25 8 32 38 32 23 0 24 -1 10 -22z"/>
<path d="M1618 1543 c7 -3 16 -2 19 1 4 3 -2 6 -13 5 -11 0 -14 -3 -6 -6z"/>
</g>
</svg>
